<?xml version="1.0" standalone="no"?>
<!DOCTYPE svg PUBLIC "-//W3C//DTD SVG 20010904//EN"
 "http://www.w3.org/TR/2001/REC-SVG-20010904/DTD/svg10.dtd">
<svg version="1.0" xmlns="http://www.w3.org/2000/svg"
 width="700.000000pt" height="700.000000pt" viewBox="0 0 700.000000 700.000000"
 preserveAspectRatio="xMidYMid meet">
<metadata>
Created by potrace 1.14, written by Peter Selinger 2001-2017
</metadata>
<g transform="translate(0.000000,700.000000) scale(0.100000,-0.100000)"
fill="#000000" stroke="none">
<path d="M3434 6658 c-474 -665 -716 -1147 -773 -1538 -10 -69 -8 -284 3 -335
14 -64 49 -172 68 -210 64 -124 187 -259 313 -343 79 -52 210 -120 246 -128
277 -57 582 22 821 213 151 120 302 307 313 389 3 19 7 50 10 71 24 170 -15
453 -92 663 -92 253 -228 489 -524 910 -68 96 -162 233 -210 303 l-87 128 -88
-123z m110 -344 c4 -9 84 -134 180 -278 260 -393 352 -559 414 -751 60 -182
71 -370 32 -520 -20 -77 -92 -236 -128 -283 -18 -23 -18 -20 -16 101 5 254
-76 471 -304 817 -42 63 -81 120 -87 126 -5 6 -30 43 -55 83 -25 39 -48 71
-52 71 -8 0 -228 -353 -302 -486 -117 -209 -195 -411 -235 -600 -17 -83 -17
-84 -28 -52 -11 31 -40 146 -49 196 -2 12 -9 50 -15 85 -16 86 -18 291 -4 380
7 48 23 94 44 133 19 32 40 73 49 89 94 186 469 823 524 893 14 16 25 15 32
-4z"/>
<path d="M758 5613 c-75 -297 -130 -534 -142 -618 -4 -22 -8 -47 -11 -55 -2
-8 -7 -37 -10 -65 -8 -59 -14 -107 -21 -155 -3 -19 -7 -129 -9 -245 -3 -224 9
-330 54 -480 77 -260 258 -466 511 -582 128 -59 148 -62 355 -59 189 4 191 4
270 36 428 177 687 612 619 1042 -7 43 -20 102 -29 130 -47 143 -316 458 -575
675 -134 112 -461 354 -636 473 -63 43 -261 186 -272 197 -7 7 -16 13 -20 13
-4 0 -42 -138 -84 -307z m276 -120 c85 -77 80 -73 426 -330 517 -384 695 -638
685 -977 -2 -71 -41 -274 -50 -264 -1 2 -5 23 -8 48 -14 107 -64 223 -140 325
-87 116 -176 198 -437 403 -85 67 -177 140 -203 163 -26 23 -49 40 -51 38 -11
-13 -79 -237 -105 -341 -49 -202 -60 -296 -56 -473 2 -119 8 -181 23 -240 22
-84 73 -217 95 -243 10 -13 9 -14 -3 -7 -135 76 -270 230 -333 380 -53 126
-71 235 -71 425 0 197 13 292 103 755 45 225 62 326 64 363 1 21 18 14 61 -25z"/>
<path d="M6130 5838 c-616 -400 -822 -553 -1042 -771 -213 -213 -419 -511
-436 -634 -9 -66 -8 -237 2 -302 10 -68 49 -178 88 -251 136 -250 405 -431
723 -487 17 -3 85 -7 151 -8 162 -5 317 26 437 86 192 97 336 257 420 466 l31
78 1 200 c0 173 -8 344 -20 418 -2 12 -6 45 -10 72 -11 90 -35 238 -60 365
-13 69 -26 136 -29 150 -2 14 -19 90 -36 170 -17 80 -33 154 -36 165 -10 48
-14 66 -38 180 -36 166 -36 165 -44 165 -4 -1 -50 -29 -102 -62z m-51 -345
c-1 -28 8 -76 46 -258 40 -189 65 -310 71 -340 10 -50 33 -195 39 -240 3 -27
8 -66 10 -85 6 -41 6 -283 1 -320 -37 -254 -105 -401 -266 -568 l-41 -43 8 83
c15 162 8 544 -12 658 -2 14 -6 45 -9 70 -3 25 -8 55 -10 66 -2 12 -7 39 -10
60 -4 22 -8 46 -11 54 -2 8 -6 26 -9 40 -2 14 -10 48 -16 75 -6 28 -14 59 -16
71 -2 11 -10 37 -17 58 l-13 39 -35 -30 c-19 -17 -88 -70 -154 -119 -395 -291
-514 -406 -607 -584 -42 -80 -75 -181 -77 -234 -2 -37 -14 -6 -27 66 -18 101
-11 265 15 363 24 88 97 244 139 298 15 19 38 49 52 68 84 117 342 340 631
547 63 45 155 113 204 151 95 73 114 82 114 54z"/>
<path d="M3457 3803 c-1 -1 -34 -4 -73 -7 -246 -20 -487 -110 -674 -252 -191
-145 -312 -329 -379 -579 -11 -39 -13 -41 -83 -63 -171 -55 -401 -187 -554
-320 -249 -215 -401 -443 -476 -710 -39 -140 -34 -332 12 -487 17 -58 97 -215
120 -235 3 -3 18 -23 34 -45 46 -62 160 -170 276 -261 285 -223 654 -400 1046
-504 102 -26 252 -58 312 -65 26 -3 56 -8 67 -10 11 -2 49 -7 85 -11 36 -3 97
-9 135 -14 75 -8 513 -5 555 4 14 3 56 8 94 11 37 3 71 7 75 9 3 2 29 6 56 9
28 3 95 16 149 27 667 145 1200 486 1534 982 87 129 90 141 97 323 11 307
-113 592 -370 850 -42 42 -100 93 -195 169 -93 74 -381 227 -523 277 -64 23
-68 26 -78 64 -108 417 -424 707 -877 805 -97 21 -354 45 -365 33z m253 -269
c355 -66 640 -272 764 -552 37 -83 45 -110 65 -212 l17 -84 78 -3 c83 -4 118
-17 271 -106 489 -282 722 -591 717 -950 -1 -66 -6 -89 -33 -145 -61 -129
-159 -355 -159 -369 0 -7 -4 -13 -9 -13 -4 0 -5 19 -1 43 14 74 9 233 -9 324
-90 438 -478 807 -1061 1008 -3 1 -12 4 -20 7 -8 3 -37 12 -65 19 -27 6 -55
16 -61 20 -6 5 -9 48 -8 115 3 119 -5 152 -57 242 -46 78 -171 200 -247 240
-123 65 -204 85 -347 85 -109 1 -159 -7 -250 -38 -110 -38 -185 -81 -268 -155
-133 -118 -228 -321 -230 -492 -1 -24 -6 -28 -51 -39 -60 -14 -202 -56 -231
-69 -140 -60 -321 -158 -357 -193 -7 -7 -24 -20 -38 -28 -49 -32 -149 -128
-240 -229 -124 -139 -243 -389 -275 -575 -13 -76 -14 -90 -16 -152 0 -35 -5
-61 -9 -58 -4 2 -24 39 -45 82 -125 256 -120 513 16 773 99 191 291 384 512
516 112 67 349 165 426 177 31 5 39 16 46 67 44 311 245 563 546 682 81 32
177 58 244 65 28 3 52 7 55 10 10 9 261 0 330 -13z"/>
</g>
</svg>
